<svg width="22" height="20" viewBox="0 0 22 20" fill="none" xmlns="http://www.w3.org/2000/svg">
<path d="M9.34507 0.466369C8.93202 0.152458 8.42466 -0.0116845 7.90626 0.000647458H2.28793C1.68114 0.000647458 1.09919 0.241697 0.670121 0.670768C0.241049 1.09984 0 1.68178 0 2.28859V17.5414C0 18.1483 0.241049 18.7302 0.670121 19.1593C1.09919 19.5884 1.68113 19.8294 2.28793 19.8294H19.0661C19.6729 19.8294 20.2549 19.5884 20.684 19.1593C21.1131 18.7302 21.3541 18.1483 21.3541 17.5414V5.33917C21.3541 4.73236 21.1131 4.15042 20.684 3.72135C20.2549 3.29227 19.6729 3.05123 19.0661 3.05123H10.5098L10.182 1.7398C10.0565 1.23266 9.76101 0.782502 9.34507 0.466369Z" fill="currentColor"/>
</svg>
