<svg width="23" height="21" viewBox="0 0 23 21" fill="none" xmlns="http://www.w3.org/2000/svg">
<path fill-rule="evenodd" clip-rule="evenodd" d="M12.2342 0.413182C11.6833 -0.137727 10.7901 -0.137727 10.2392 0.413182L0.413181 10.2392C-0.137727 10.7901 -0.137727 11.6833 0.413181 12.2342C0.96409 12.7851 1.85728 12.7851 2.40819 12.2342L3.11344 11.529V19.6104C3.11344 20.1669 3.56457 20.618 4.12108 20.618H18.3519C18.9084 20.618 19.3595 20.1669 19.3595 19.6104V11.5286L20.0652 12.2342C20.6161 12.7851 21.5093 12.7851 22.0602 12.2342C22.6112 11.6833 22.6112 10.7901 22.0602 10.2392L12.2342 0.413182ZM17.3443 9.51335L11.2367 3.40571L5.12871 9.5137V18.6027H17.3443V9.51335Z" fill="currentColor"/>
</svg>
